<svg xmlns="http://www.w3.org/2000/svg" width="35.584" height="32.483" viewBox="0 0 35.584 32.483"><defs><style>.a,.b{fill:#fff;}.b{opacity:0.247;}</style></defs><g transform="translate(-1139 -165)"><path class="a" d="M16.242,32.483a16.362,16.362,0,0,1-3.273-.33,16.153,16.153,0,0,1-5.808-2.444,16.289,16.289,0,0,1-5.884-7.146A16.16,16.16,0,0,1,.33,19.515a16.4,16.4,0,0,1,0-6.546A16.153,16.153,0,0,1,2.774,7.161,16.289,16.289,0,0,1,9.92,1.276,16.159,16.159,0,0,1,12.968.33a16.4,16.4,0,0,1,6.689.03,16.163,16.163,0,0,1,6.012,2.655A16.365,16.365,0,0,1,28.116,5.16a18.1,18.1,0,0,0-11.1.136,16.152,16.152,0,0,0-2.512,1.1,14.68,14.68,0,0,0-2.189,1.462,13.044,13.044,0,0,0-1.806,1.773A11.493,11.493,0,0,0,9.147,11.67a10.335,10.335,0,0,0-.862,2.248,9.845,9.845,0,0,0,0,4.828,10.335,10.335,0,0,0,.862,2.248,11.493,11.493,0,0,0,1.364,2.034A13.044,13.044,0,0,0,12.317,24.8a14.681,14.681,0,0,0,2.189,1.462,16.152,16.152,0,0,0,2.512,1.1,17.723,17.723,0,0,0,5.757.941,17.872,17.872,0,0,0,5.1-.73,16.272,16.272,0,0,1-5.211,3.587,16.158,16.158,0,0,1-3.093.977A16.359,16.359,0,0,1,16.242,32.483Z" transform="translate(1139 165)"/><path class="b" d="M10.255,0A10.561,10.561,0,0,0,8.189.2,10.3,10.3,0,0,0,3,2.936,10.15,10.15,0,0,0,1.751,4.42a9.956,9.956,0,0,0-.946,1.7,9.832,9.832,0,0,0,0,7.8,9.956,9.956,0,0,0,.946,1.7A10.15,10.15,0,0,0,3,17.112a10.314,10.314,0,0,0,5.185,2.732,10.587,10.587,0,0,0,4.224-.018,10.324,10.324,0,0,0,3.8-1.638,10.266,10.266,0,0,0,1.545-1.324,11.49,11.49,0,0,1-3.373.5,11.426,11.426,0,0,1-3.635-.581A10.321,10.321,0,0,1,9.159,16.1a9.288,9.288,0,0,1-1.382-.9A8.151,8.151,0,0,1,6.637,14.1a7.085,7.085,0,0,1-.861-1.256,6.291,6.291,0,0,1-.544-1.388,5.944,5.944,0,0,1,0-2.98,6.291,6.291,0,0,1,.544-1.388,7.085,7.085,0,0,1,.861-1.256,8.151,8.151,0,0,1,1.14-1.094,9.288,9.288,0,0,1,1.382-.9,10.321,10.321,0,0,1,1.586-.682,11.688,11.688,0,0,1,6.853-.13A10.311,10.311,0,0,0,12.355.21,10.559,10.559,0,0,0,10.255,0Z" transform="translate(1170.224 191.266) rotate(180)"/><rect class="a" width="22.17" height="7.126" rx="3.563" transform="translate(1152.414 177.678)"/></g></svg>