<svg xmlns="http://www.w3.org/2000/svg" width="33.932" height="30.975" viewBox="0 0 33.932 30.975"><defs><style>.a{fill:#4684b9;}.b{fill:#468db9;opacity:0.247;}.c{fill:#a0cc4d;}</style></defs><path class="a" d="M15.488,30.975a15.6,15.6,0,0,1-3.121-.315,15.4,15.4,0,0,1-5.538-2.33,15.533,15.533,0,0,1-5.611-6.814,15.41,15.41,0,0,1-.9-2.907,15.639,15.639,0,0,1,0-6.243,15.4,15.4,0,0,1,2.33-5.538A15.533,15.533,0,0,1,9.459,1.217a15.409,15.409,0,0,1,2.907-.9,15.635,15.635,0,0,1,6.378.028,15.413,15.413,0,0,1,5.733,2.531,15.605,15.605,0,0,1,2.333,2.046,17.26,17.26,0,0,0-10.583.13,15.4,15.4,0,0,0-2.4,1.053A14,14,0,0,0,11.745,7.5a12.438,12.438,0,0,0-1.722,1.69,10.96,10.96,0,0,0-1.3,1.94A9.855,9.855,0,0,0,7.9,13.272a9.388,9.388,0,0,0,0,4.6,9.855,9.855,0,0,0,.822,2.144,10.96,10.96,0,0,0,1.3,1.94,12.439,12.439,0,0,0,1.722,1.69,14,14,0,0,0,2.087,1.395,15.4,15.4,0,0,0,2.4,1.053,16.9,16.9,0,0,0,5.49.9,17.043,17.043,0,0,0,4.86-.7,15.516,15.516,0,0,1-4.969,3.42,15.408,15.408,0,0,1-2.949.931A15.6,15.6,0,0,1,15.488,30.975Z"/><path class="b" d="M9.779,0A10.071,10.071,0,0,0,7.808.194,9.823,9.823,0,0,0,2.864,2.8,9.679,9.679,0,0,0,1.67,4.214a9.494,9.494,0,0,0-.9,1.624,9.376,9.376,0,0,0,0,7.441,9.494,9.494,0,0,0,.9,1.624,9.679,9.679,0,0,0,1.194,1.415,9.835,9.835,0,0,0,4.944,2.606,10.1,10.1,0,0,0,4.027-.018,9.845,9.845,0,0,0,3.62-1.562,9.789,9.789,0,0,0,1.473-1.263,10.957,10.957,0,0,1-3.216.474A10.9,10.9,0,0,1,10.247,16a9.842,9.842,0,0,1-1.513-.65,8.857,8.857,0,0,1-1.318-.861,7.773,7.773,0,0,1-1.087-1.043,6.756,6.756,0,0,1-.821-1.2,6,6,0,0,1-.519-1.323,5.668,5.668,0,0,1,0-2.841,6,6,0,0,1,.519-1.323,6.756,6.756,0,0,1,.821-1.2A7.773,7.773,0,0,1,7.416,4.521,8.857,8.857,0,0,1,8.734,3.66a9.842,9.842,0,0,1,1.513-.65,11.146,11.146,0,0,1,6.535-.124,9.832,9.832,0,0,0-5-2.686A10.069,10.069,0,0,0,9.779,0Z" transform="translate(29.775 25.046) rotate(180)"/><rect class="c" width="21.141" height="6.795" rx="3.398" transform="translate(12.791 12.09)"/></svg>